<svg height="511pt" viewBox="0 0 511 511.99976" width="511pt" xmlns="http://www.w3.org/2000/svg"><path d="m511.671875 101.890625c-1.613281-4.742187-5.699219-8.089844-10.664063-8.734375l-37.730468-4.921875c5.828125-10.804687 4.191406-24.609375-4.917969-33.71875-5.386719-5.390625-12.546875-8.355469-20.164063-8.355469-.007812 0-.015624 0-.019531 0-4.464843.003906-8.765625 1.03125-12.652343 2.960938l-4.921876-37.75c-.648437-4.96875-3.996093-9.054688-8.734374-10.667969-4.742188-1.609375-9.886719-.414063-13.429688 3.128906l-53.789062 53.789063c-2.953126 2.953125-4.320313 7.175781-3.65625 11.296875l8.703124 54.15625-2.488281 2.496093c-37.464843-28.882812-83.136719-44.539062-131.222656-44.539062-45.191406 0-88.453125 13.835938-125.105469 40.015625-3.375 2.410156-4.15625 7.097656-1.746094 10.472656 2.410157 3.375 7.097657 4.15625 10.472657 1.746094 34.089843-24.351563 74.335937-37.222656 116.378906-37.222656 45.171875 0 86.894531 15.027343 120.449219 40.332031l-30.472656 30.574219c-25.539063-17.792969-56.558594-28.246094-89.976563-28.246094-87.015625 0-157.808594 70.792969-157.808594 157.8125 0 87.015625 70.792969 157.808594 157.808594 157.808594s157.808594-70.792969 157.808594-157.808594c0-33.039063-10.214844-63.726563-27.636719-89.097656l30.515625-30.621094c24.972656 33.433594 39.78125 74.875 39.78125 119.71875 0 110.539063-89.929687 200.46875-200.46875 200.46875s-200.46875-89.929687-200.46875-200.46875c0-49.433594 18.144531-96.914063 51.09375-133.699219 2.765625-3.085937 2.503906-7.835937-.582031-10.601562-3.089844-2.765625-7.835938-2.503906-10.601563.582031-35.421875 39.542969-54.925781 90.582031-54.925781 143.71875 0 57.558594 22.414062 111.671875 63.113281 152.371094s94.8125 63.113281 152.371094 63.113281 111.671875-22.414062 152.371094-63.113281 63.113281-94.8125 63.113281-152.371094c0-47.792969-15.472656-93.199219-44.015625-130.53125l1.90625-1.914063 54.097656 8.695313c.6875.109375 1.375.164063 2.0625.164063 3.429688 0 6.777344-1.359376 9.238281-3.820313l11.546876-11.546875c2.933593-2.933594 2.933593-7.683594 0-10.617188-2.933594-2.929687-7.683594-2.929687-10.617188 0l-10.835938 10.835938-42.210937-6.785156 49.121094-49.121094 43.34375 5.652344-6.511719 6.511718c-2.929688 2.933594-2.929688 7.683594 0 10.617188 2.933594 2.929688 7.6875 2.929688 10.617188 0l9.335937-9.335938c3.539063-3.542968 4.738281-8.6875 3.125-13.429687zm-105.445313-84.617187 5.65625 43.34375-49.125 49.121093-6.785156-42.210937zm-47.449218 279.242187c0 78.734375-64.054688 142.792969-142.792969 142.792969s-142.792969-64.058594-142.792969-142.792969c0-78.738281 64.054688-142.792969 142.792969-142.792969 29.28125 0 56.523437 8.859375 79.203125 24.035156l-31.164062 31.269532c-14.261719-7.867188-30.632813-12.359375-48.039063-12.359375-55.054687 0-99.84375 44.792969-99.84375 99.847656 0 55.050781 44.789063 99.84375 99.84375 99.84375s99.84375-44.792969 99.84375-99.84375c0-16.945313-4.257813-32.90625-11.734375-46.898437l31.269531-31.375c14.796875 22.496093 23.414063 49.394531 23.414063 78.273437zm-156.75 15.042969c5.386718 5.386718 12.550781 8.351562 20.167968 8.351562h.019532c7.625-.003906 14.789062-2.980468 20.175781-8.382812l10.640625-10.675782c-2.15625 18.535157-17.945312 32.96875-37.046875 32.96875-20.570313 0-37.304687-16.734374-37.304687-37.304687 0-19.890625 15.640624-36.191406 35.269531-37.25l-11.949219 11.988281c-11.085938 11.121094-11.074219 29.199219.027344 40.304688zm-38.363282-15.042969c0 28.847656 23.472657 52.320313 52.320313 52.320313s52.320313-23.46875 52.320313-52.320313c0-3.425781-.34375-6.765625-.976563-10.007813l25.59375-25.679687c5.058594 10.855469 7.894531 22.945313 7.894531 35.6875 0 46.773437-38.054687 84.828125-84.832031 84.828125s-84.828125-38.054688-84.828125-84.828125c0-46.777344 38.050781-84.832031 84.828125-84.832031 13.234375 0 25.761719 3.058594 36.933594 8.488281l-25.269531 25.351563c-3.75-.863282-7.652344-1.328126-11.664063-1.328126-28.847656 0-52.320313 23.46875-52.320313 52.320313zm68.09375 4.410156c-2.550781 2.558594-5.945312 3.96875-9.554687 3.96875-.003906 0-.007813 0-.007813 0-3.609374 0-7-1.402343-9.550781-3.953125-5.253906-5.257812-5.261719-13.816406-.011719-19.082031l216-216.714844c2.550782-2.558593 5.941407-3.96875 9.550782-3.972656h.011718c3.605469 0 6.996094 1.40625 9.546876 3.957031 5.257812 5.257813 5.265624 13.816406.011718 19.082032zm0 0"/></svg>